<svg width="306" height="81" viewBox="0 0 306 81" fill="none" xmlns="http://www.w3.org/2000/svg">
<g clip-path="url(#clip0_378_377)">
<path d="M53.0249 31.2829L59.4895 25.2549L35.9107 1.6783C33.6674 -0.565051 30.0283 -0.552207 27.7978 1.70399L1.70383 28.1341C-0.505274 30.371 -0.494571 33.9715 1.72952 36.1956L3.57472 38.0408L31.5674 9.60497L53.0249 31.2829Z" fill="white"/>
<path d="M61.5918 23.3026L67.6733 17.2211L52.2674 1.69747C50.0368 -0.558728 46.4 -0.567291 44.1566 1.67392L42.1958 3.63258L61.5918 23.3005V23.3026Z" fill="#E0E0E0"/>
<path d="M1.75757 44.0708C-0.472946 46.327 -0.430134 49.981 1.84105 52.1965L29.0653 78.6309C31.2936 80.8036 34.877 80.7758 37.0904 78.5752L39.0234 76.6423L9.38669 48.245L37.769 19.8648L31.6747 13.7705L1.75757 44.0708Z" fill="#E0E0E0"/>
<path d="M79.9453 35.6069L81.326 37.0026L48.1787 70.152L19.9527 41.926L13.6465 48.0053L44.1587 78.5025C46.3871 80.7458 50.0111 80.7458 52.2416 78.5025L87.5338 43.2103L88.9295 44.606L91.3997 33.1238L79.9453 35.6069Z" fill="white"/>
<path d="M73.932 34.3546L71.4746 45.8368L70.111 44.4733L48.3239 66.2625L42.189 60.1254L63.7042 38.0707L62.4798 36.8463L73.932 34.3546Z" fill="#E0E0E0"/>
<path d="M125.191 20.8004C124.699 20.3081 124.14 19.8864 123.517 19.5396C122.895 19.1928 122.235 18.9231 121.54 18.7347C120.844 18.5463 120.133 18.4521 119.41 18.4521C118.279 18.4521 117.233 18.6469 116.267 19.0387C115.304 19.4304 114.456 19.9805 113.724 20.6912C112.992 21.4019 112.423 22.2239 112.018 23.1593C111.611 24.0948 111.41 25.1052 111.41 26.1926C111.41 27.28 111.614 28.2989 112.018 29.2472C112.423 30.1977 112.986 31.0261 113.703 31.7368C114.42 32.4474 115.257 33.0019 116.214 33.4C117.171 33.7982 118.207 33.9972 119.322 33.9972C120.045 33.9972 120.76 33.8966 121.462 33.6933C122.165 33.4899 122.839 33.2009 123.485 32.8242C124.13 32.4474 124.705 32.0065 125.213 31.497L123.691 29.9108C123.111 30.4759 122.451 30.9212 121.713 31.2487C120.974 31.5741 120.221 31.7368 119.452 31.7368C118.684 31.7368 117.993 31.5912 117.333 31.3022C116.674 31.0132 116.094 30.6129 115.593 30.1056C115.092 29.5983 114.705 29.0075 114.431 28.3332C114.154 27.6589 114.017 26.9375 114.017 26.169C114.017 25.4006 114.154 24.6578 114.431 23.9835C114.707 23.3092 115.094 22.7184 115.593 22.2111C116.094 21.7037 116.672 21.3099 117.333 21.0252C117.993 20.7426 118.699 20.6013 119.452 20.6013C120.206 20.6013 120.981 20.7747 121.734 21.1236C122.488 21.4704 123.141 21.9499 123.691 22.5578L125.191 20.7961V20.8004Z" fill="white"/>
<path d="M131.14 19.0386C130.162 19.4303 129.306 19.9762 128.576 20.6804C127.844 21.3825 127.272 22.2067 126.859 23.1485C126.446 24.0904 126.24 25.1051 126.24 26.1925C126.24 27.2799 126.448 28.2988 126.859 29.2471C127.272 30.1976 127.844 31.026 128.576 31.7367C129.308 32.4473 130.162 33.0018 131.14 33.3999C132.118 33.7981 133.174 33.9971 134.304 33.9971C135.434 33.9971 136.489 33.7981 137.468 33.3999C138.446 33.0018 139.3 32.4473 140.032 31.7367C140.764 31.026 141.336 30.1976 141.749 29.2471C142.162 28.2988 142.368 27.2799 142.368 26.1925C142.368 25.1051 142.162 24.0947 141.749 23.1593C141.336 22.2238 140.762 21.4018 140.032 20.6911C139.3 19.9805 138.446 19.4303 137.468 19.0386C136.489 18.6469 135.434 18.4521 134.304 18.4521C133.174 18.4521 132.118 18.6469 131.14 19.0386ZM136.423 21.0486C137.082 21.3312 137.658 21.7272 138.151 22.2345C138.643 22.7418 139.03 23.3326 139.313 24.0069C139.595 24.6812 139.737 25.409 139.737 26.1925C139.737 26.976 139.595 27.708 139.313 28.3888C139.03 29.0695 138.643 29.6688 138.151 30.1826C137.658 30.6963 137.082 31.0988 136.423 31.3899C135.764 31.681 135.064 31.8244 134.325 31.8244C133.587 31.8244 132.887 31.6789 132.228 31.3899C131.568 31.1009 130.984 30.6985 130.477 30.1826C129.969 29.6688 129.571 29.0695 129.28 28.3888C128.989 27.708 128.845 26.976 128.845 26.1925C128.845 25.409 128.987 24.6812 129.269 24.0069C129.552 23.3326 129.946 22.7418 130.455 22.2345C130.962 21.7272 131.545 21.3312 132.206 21.0486C132.865 20.7661 133.572 20.6248 134.325 20.6248C135.079 20.6248 135.764 20.7661 136.423 21.0486ZM145.108 33.8216H147.477V22.1896L152.52 32.2333H154.152L159.152 22.1896L159.173 33.8216H161.543V18.604H158.566L153.347 28.9303L148.085 18.604H145.108V33.8216ZM165.544 18.604V33.8216H168.108V28.0612L166.978 29.1915H171.608C173.522 29.1915 175.003 28.7163 176.054 27.768C177.105 26.8197 177.63 25.4882 177.63 23.7779C177.63 22.0675 177.103 20.8688 176.054 19.9633C175.003 19.0578 173.522 18.604 171.608 18.604H165.542H165.544ZM166.978 26.9952L168.108 28.1255V19.6679L166.978 20.7982H171.501C172.674 20.7982 173.582 21.0486 174.22 21.5474C174.858 22.0483 175.177 22.8125 175.177 23.84C175.177 24.8675 174.858 25.7066 174.22 26.2203C173.582 26.7341 172.676 26.9931 171.501 26.9931H166.978V26.9952ZM180.175 18.604V33.8216H182.739V29.1915H186.348C188.305 29.1915 189.816 28.7163 190.882 27.768C191.948 26.8197 192.481 25.4882 192.481 23.7779C192.481 22.0675 191.948 20.8688 190.882 19.9633C189.816 19.0578 188.305 18.604 186.348 18.604H180.175ZM182.739 26.9952V20.7982H186.348C187.522 20.7982 188.431 21.0486 189.078 21.5474C189.722 22.0483 190.045 22.8125 190.045 23.84C190.045 24.8675 189.722 25.7066 189.078 26.2203C188.433 26.7341 187.524 26.9931 186.348 26.9931H182.739V26.9952ZM189.827 33.8216H192.74L188.958 28.1897H186.436L189.827 33.8216ZM195.893 33.8216H207.025V31.6253H198.458V27.2564H205.892V25.0815H198.458V20.7982H206.763V18.6019H195.893V33.8195V33.8216ZM210.154 33.8216H212.719V27.4512H220.784V33.8216H223.349V18.604H220.784V25.2785H212.719V18.604H210.154V33.8216ZM227.352 33.8216H238.483V31.6253H229.916V27.2564H237.351V25.0815H229.916V20.7982H238.222V18.6019H227.352V33.8195V33.8216ZM241.612 33.8216H244.177V21.5602L243.503 21.7786L252.286 33.8237H254.807V18.6062H252.286V30.889L252.938 30.6706L244.134 18.604H241.612V33.8216ZM269.158 19.9719C268.447 19.5074 267.629 19.1306 266.7 18.8416C265.774 18.5527 264.817 18.4071 263.83 18.4071C262.727 18.4071 261.76 18.5805 260.927 18.9294C260.094 19.2762 259.446 19.7664 258.981 20.3979C258.517 21.0293 258.286 21.7721 258.286 22.6262C258.286 23.4097 258.433 24.054 258.731 24.5613C259.028 25.0687 259.42 25.4818 259.904 25.8008C260.39 26.1197 260.925 26.3851 261.514 26.5949C262.1 26.8047 262.687 26.9909 263.275 27.1493C263.862 27.3099 264.399 27.4897 264.885 27.6931C265.371 27.8964 265.763 28.1533 266.058 28.4658C266.356 28.7783 266.503 29.1872 266.503 29.6945C266.503 30.3174 266.253 30.8034 265.754 31.1523C265.253 31.4991 264.555 31.6746 263.656 31.6746C263.119 31.6746 262.552 31.5868 261.95 31.4134C261.349 31.24 260.754 30.9853 260.167 30.6514C259.581 30.3174 259.026 29.9129 258.504 29.4334L257.395 31.5419C257.917 32.0192 258.508 32.4409 259.168 32.8027C259.827 33.1644 260.533 33.4513 261.287 33.6611C262.04 33.8708 262.815 33.9757 263.614 33.9757C264.729 33.9757 265.718 33.7938 266.581 33.432C267.443 33.0703 268.12 32.5587 268.614 31.8993C269.106 31.24 269.353 30.4609 269.353 29.5618C269.353 28.7783 269.207 28.1297 268.918 27.616C268.627 27.1022 268.237 26.6784 267.745 26.3445C267.253 26.0105 266.715 25.7387 266.135 25.5289C265.555 25.3191 264.973 25.1265 264.384 24.9531C263.796 24.7797 263.26 24.5935 262.775 24.3987C262.289 24.2039 261.897 23.9491 261.601 23.6387C261.304 23.3262 261.156 22.9259 261.156 22.4314C261.156 21.8813 261.381 21.4596 261.831 21.1706C262.28 20.8816 262.882 20.7361 263.635 20.7361C264.027 20.7361 264.461 20.7789 264.939 20.8667C265.416 20.9544 265.923 21.0978 266.461 21.3012C266.996 21.5046 267.54 21.7786 268.092 22.1275L269.158 19.9762V19.9719ZM272.354 33.8216H274.918V18.604H272.354V33.8216ZM283.05 33.8216H285.703L291.855 18.604H289.181L284.442 31.1266L279.745 18.604H276.984L283.05 33.8216ZM293.92 33.8216H305.051V31.6253H296.485V27.2564H303.919V25.0815H296.485V20.7982H304.79V18.6019H293.92V33.8195V33.8216Z" fill="white"/>
<path d="M111.731 45.6826H112.956V39.674L115.561 44.8628H116.402L118.986 39.674L118.996 45.6826H120.221V37.8223H118.682L115.987 43.1567L113.268 37.8223H111.729V45.6826H111.731ZM121.265 45.6826H122.646L125.375 39.1581L128.115 45.6826H129.53L126.095 37.8223H124.735L121.265 45.6826ZM122.995 43.8631H127.7V42.7393H122.995V43.8631ZM130.575 45.6826H131.9V39.3486L131.551 39.4599L136.087 45.6805H137.391V37.8202H136.087V44.165L136.423 44.0536L131.874 37.8202H130.571V45.6805L130.575 45.6826ZM138.446 45.6826H139.827L142.556 39.1581L145.296 45.6826H146.711L143.275 37.8223H141.916L138.446 45.6826ZM140.176 43.8631H144.881V42.7393H140.176V43.8631Z" fill="white"/>
<path d="M154.134 38.8541C153.88 38.623 153.589 38.4239 153.259 38.259C152.929 38.0942 152.583 37.9679 152.221 37.878C151.857 37.7881 151.489 37.7432 151.114 37.7432C150.523 37.7432 149.971 37.8438 149.457 38.0471C148.944 38.2483 148.496 38.533 148.115 38.9012C147.734 39.2673 147.437 39.6933 147.222 40.1749C147.008 40.6587 146.901 41.181 146.901 41.7418C146.901 42.3027 147.006 42.8292 147.216 43.3194C147.426 43.8096 147.719 44.2378 148.098 44.6059C148.477 44.972 148.914 45.2588 149.412 45.4643C149.911 45.6698 150.45 45.7726 151.035 45.7726C151.394 45.7726 151.756 45.7298 152.124 45.6441C152.49 45.5585 152.846 45.4365 153.186 45.2781C153.527 45.1218 153.828 44.942 154.09 44.7387L153.325 43.8182C153.011 44.0729 152.657 44.2742 152.264 44.424C151.87 44.5738 151.491 44.6488 151.125 44.6488C150.72 44.6488 150.343 44.5738 149.997 44.424C149.648 44.2742 149.344 44.0665 149.081 43.8011C148.819 43.5356 148.614 43.2274 148.468 42.8742C148.323 42.5231 148.25 42.1442 148.25 41.7397C148.25 41.3351 148.323 40.9584 148.468 40.6116C148.614 40.2627 148.817 39.9587 149.081 39.6954C149.342 39.4342 149.646 39.2266 149.99 39.0768C150.335 38.9269 150.71 38.852 151.114 38.852C151.519 38.852 151.932 38.9333 152.332 39.0939C152.732 39.2544 153.083 39.4771 153.383 39.7618L154.134 38.852V38.8541ZM152.934 44.7387H154.09V41.8424H152.934V44.7387ZM155.965 45.6827H161.714V44.5481H157.29V42.292H161.13V41.1681H157.29V38.9569H161.58V37.8224H155.965V45.6827ZM163.331 45.6827H164.555V39.674L167.16 44.8628H168.001L170.585 39.674L170.596 45.6827H171.82V37.8224H170.281L167.586 43.1568L164.867 37.8224H163.328V45.6827H163.331ZM173.886 45.6827H179.636V44.5481H175.211V42.292H179.051V41.1681H175.211V38.9569H179.501V37.8224H173.886V45.6827ZM181.252 45.6827H182.577V39.3486L182.228 39.4599L186.764 45.6805H188.067V37.8202H186.764V44.165L187.1 44.0537L182.551 37.8202H181.247V45.6805L181.252 45.6827ZM189.213 38.9569H191.694V45.6827H193.019V38.9569H195.512V37.8224H189.213V38.9569ZM206.147 38.9569C205.892 38.7022 205.603 38.486 205.282 38.3061C204.961 38.1263 204.619 37.9872 204.261 37.8909C203.901 37.7945 203.535 37.7453 203.161 37.7453C202.576 37.7453 202.035 37.8459 201.538 38.0493C201.039 38.2505 200.603 38.5352 200.224 38.9034C199.845 39.2694 199.552 39.6954 199.342 40.177C199.132 40.6608 199.027 41.1831 199.027 41.744C199.027 42.3048 199.132 42.8314 199.342 43.3216C199.552 43.8118 199.841 44.2399 200.213 44.6081C200.583 44.9741 201.016 45.261 201.51 45.4665C202.005 45.672 202.54 45.7747 203.116 45.7747C203.49 45.7747 203.859 45.7212 204.223 45.6185C204.586 45.5136 204.933 45.3637 205.267 45.1689C205.601 44.9741 205.899 44.7451 206.16 44.4839L205.374 43.6641C205.074 43.9552 204.734 44.1864 204.353 44.3555C203.972 44.5246 203.582 44.6081 203.184 44.6081C202.786 44.6081 202.431 44.5332 202.088 44.3833C201.748 44.2335 201.448 44.028 201.189 43.7647C200.93 43.5035 200.731 43.1974 200.588 42.8485C200.446 42.4996 200.374 42.1271 200.374 41.7311C200.374 41.3351 200.444 40.9498 200.588 40.603C200.729 40.2541 200.93 39.9501 201.189 39.6868C201.448 39.4257 201.746 39.2202 202.088 39.0746C202.429 38.9291 202.795 38.8563 203.184 38.8563C203.574 38.8563 203.974 38.9462 204.364 39.126C204.753 39.3058 205.089 39.552 205.374 39.8666L206.149 38.9569H206.147Z" fill="white"/>
<path d="M209.223 38.0471C208.718 38.2483 208.277 38.5309 207.898 38.8948C207.519 39.2587 207.223 39.6825 207.012 40.1685C206.8 40.6544 206.69 41.1788 206.69 41.7397C206.69 42.3005 206.797 42.8271 207.012 43.3173C207.226 43.8075 207.521 44.2356 207.898 44.6038C208.277 44.9698 208.718 45.2567 209.223 45.4622C209.728 45.6677 210.274 45.7704 210.856 45.7704C211.438 45.7704 211.984 45.6677 212.489 45.4622C212.995 45.2567 213.435 44.9698 213.814 44.6038C214.193 44.2377 214.489 43.8075 214.701 43.3173C214.912 42.8271 215.022 42.3005 215.022 41.7397C215.022 41.1788 214.915 40.6565 214.701 40.1727C214.487 39.689 214.191 39.2651 213.814 38.8991C213.435 38.533 212.995 38.2483 212.489 38.045C211.984 37.8438 211.44 37.741 210.856 37.741C210.272 37.741 209.728 37.8416 209.223 38.045V38.0471ZM211.952 39.0853C212.292 39.2309 212.59 39.4364 212.845 39.6975C213.099 39.9587 213.298 40.2648 213.446 40.6137C213.592 40.9626 213.665 41.3372 213.665 41.7418C213.665 42.1464 213.592 42.5231 213.446 42.8763C213.301 43.2274 213.099 43.5378 212.845 43.8032C212.59 44.0686 212.292 44.2763 211.952 44.4261C211.612 44.576 211.25 44.6509 210.869 44.6509C210.488 44.6509 210.126 44.576 209.786 44.4261C209.445 44.2763 209.144 44.0686 208.882 43.8032C208.621 43.5378 208.414 43.2295 208.264 42.8763C208.114 42.5253 208.039 42.1464 208.039 41.7418C208.039 41.3372 208.112 40.9605 208.257 40.6137C208.403 40.2648 208.606 39.9608 208.87 39.6975C209.133 39.4342 209.433 39.2309 209.773 39.0853C210.113 38.9397 210.479 38.867 210.867 38.867C211.254 38.867 211.61 38.9397 211.95 39.0853H211.952ZM216.439 45.6827H217.764V39.3486L217.415 39.4599L221.951 45.6805H223.254V37.8202H221.951V44.165L222.287 44.0537L217.738 37.8202H216.434V45.6805L216.439 45.6827ZM230.667 38.5288C230.301 38.289 229.877 38.0942 229.398 37.9444C228.918 37.7945 228.424 37.7196 227.915 37.7196C227.345 37.7196 226.846 37.8095 226.416 37.9893C225.986 38.1691 225.65 38.4217 225.41 38.7471C225.17 39.0725 225.05 39.4556 225.05 39.8987C225.05 40.3033 225.127 40.6372 225.282 40.8984C225.436 41.1596 225.637 41.3736 225.887 41.5384C226.138 41.7033 226.416 41.8403 226.718 41.9473C227.022 42.0565 227.324 42.1507 227.628 42.2341C227.932 42.3176 228.208 42.4097 228.458 42.5146C228.709 42.6195 228.912 42.7522 229.064 42.9127C229.218 43.0733 229.295 43.2852 229.295 43.5463C229.295 43.8674 229.167 44.12 228.908 44.2977C228.649 44.4754 228.289 44.5674 227.825 44.5674C227.549 44.5674 227.253 44.5225 226.943 44.4325C226.632 44.3426 226.324 44.2121 226.022 44.0387C225.718 43.8674 225.434 43.6576 225.164 43.4093L224.59 44.4989C224.86 44.7451 225.164 44.9634 225.506 45.1496C225.847 45.3359 226.213 45.4857 226.6 45.5928C226.99 45.7019 227.39 45.7554 227.801 45.7554C228.377 45.7554 228.889 45.6613 229.334 45.475C229.779 45.2888 230.13 45.0234 230.385 44.683C230.64 44.3426 230.766 43.9402 230.766 43.4757C230.766 43.0711 230.691 42.7372 230.541 42.4696C230.391 42.2042 230.19 41.9858 229.935 41.8124C229.681 41.6412 229.404 41.4999 229.105 41.3907C228.805 41.2816 228.503 41.1831 228.201 41.0932C227.9 41.0033 227.621 40.907 227.371 40.8064C227.12 40.7057 226.917 40.5752 226.765 40.4125C226.611 40.2519 226.534 40.0443 226.534 39.7896C226.534 39.5049 226.649 39.2887 226.883 39.1388C227.114 38.989 227.426 38.9141 227.814 38.9141C228.015 38.9141 228.24 38.9355 228.488 38.9804C228.734 39.0254 228.998 39.1003 229.274 39.2052C229.55 39.3101 229.83 39.4514 230.115 39.6312L230.665 38.5202L230.667 38.5288ZM233.487 37.8202H232.162V42.4589C232.162 43.1396 232.298 43.7304 232.57 44.227C232.844 44.7258 233.234 45.1068 233.743 45.3723C234.253 45.6377 234.859 45.7704 235.563 45.7704C236.267 45.7704 236.86 45.6377 237.365 45.3723C237.87 45.1068 238.258 44.7258 238.528 44.227C238.797 43.7283 238.932 43.1396 238.932 42.4589V37.8202H237.607V42.4589C237.607 43.1482 237.423 43.6855 237.057 44.0708C236.691 44.4561 236.192 44.6487 235.563 44.6487C234.934 44.6487 234.422 44.454 234.047 44.0644C233.673 43.6748 233.487 43.1396 233.487 42.4589V37.8202ZM240.842 45.6805H245.57V44.546H242.167V37.8202H240.842V45.6805ZM245.906 38.9547H248.387V45.6805H249.712V38.9547H252.206V37.8202H245.906V38.9547Z" fill="white"/>
<path d="M251.542 45.6827H252.923L255.652 39.1581L258.392 45.6827H259.807L256.372 37.8224H255.012L251.542 45.6827ZM253.272 43.8632H257.977V42.7394H253.272V43.8632ZM260.852 45.6827H262.177V39.3487L261.828 39.46L266.364 45.6806H267.668V37.8203H266.364V44.165L266.7 44.0537L262.151 37.8203H260.848V45.6806L260.852 45.6827ZM268.813 38.9569H271.294V45.6827H272.619V38.9569H275.113V37.8224H268.813V38.9569ZM281.582 38.531C281.216 38.2912 280.792 38.0964 280.312 37.9466C279.833 37.7967 279.338 37.7218 278.829 37.7218C278.259 37.7218 277.761 37.8117 277.33 37.9915C276.9 38.1713 276.564 38.4239 276.324 38.7493C276.085 39.0747 275.965 39.4578 275.965 39.9009C275.965 40.3055 276.042 40.6394 276.196 40.9006C276.35 41.1618 276.551 41.3758 276.802 41.5406C277.052 41.7055 277.33 41.8425 277.632 41.9495C277.936 42.0587 278.238 42.1529 278.542 42.2363C278.846 42.3198 279.122 42.4119 279.373 42.5168C279.623 42.6216 279.826 42.7544 279.978 42.9149C280.132 43.0755 280.209 43.2874 280.209 43.5485C280.209 43.8696 280.081 44.1222 279.822 44.2999C279.563 44.4776 279.203 44.5696 278.739 44.5696C278.463 44.5696 278.167 44.5246 277.857 44.4347C277.547 44.3448 277.238 44.2143 276.936 44.0409C276.633 43.8696 276.348 43.6598 276.078 43.4115L275.504 44.5011C275.774 44.7473 276.078 44.9656 276.421 45.1518C276.761 45.3381 277.127 45.4879 277.514 45.595C277.904 45.7041 278.304 45.7576 278.715 45.7576C279.291 45.7576 279.803 45.6634 280.248 45.4772C280.693 45.291 281.044 45.0255 281.297 44.6852C281.552 44.3448 281.678 43.9424 281.678 43.4779C281.678 43.0733 281.603 42.7394 281.453 42.4718C281.303 42.2064 281.102 41.988 280.847 41.8146C280.593 41.6434 280.317 41.5021 280.017 41.3929C279.717 41.2838 279.415 41.1853 279.114 41.0954C278.812 41.0055 278.533 40.9092 278.283 40.8086C278.032 40.7079 277.829 40.5774 277.677 40.4147C277.523 40.2541 277.446 40.0465 277.446 39.7918C277.446 39.5071 277.562 39.2909 277.795 39.141C278.026 38.9912 278.339 38.9163 278.726 38.9163C278.927 38.9163 279.152 38.9377 279.4 38.9826C279.647 39.0276 279.91 39.1025 280.186 39.2074C280.462 39.3123 280.742 39.4536 281.027 39.6334L281.577 38.5224L281.582 38.531ZM286.265 45.6849H290.994V44.5503H287.59V37.8245H286.265V45.6849ZM292.261 45.6849H296.99V44.5503H293.586V37.8245H292.261V45.6849ZM304.726 38.9591C304.471 38.7043 304.182 38.4881 303.861 38.3083C303.54 38.1285 303.197 37.9894 302.84 37.8931C302.48 37.7967 302.114 37.7475 301.74 37.7475C301.155 37.7475 300.614 37.8481 300.117 38.0515C299.618 38.2527 299.182 38.5374 298.803 38.9056C298.424 39.2716 298.131 39.6976 297.921 40.1792C297.711 40.663 297.606 41.1853 297.606 41.7461C297.606 42.307 297.711 42.8336 297.921 43.3238C298.131 43.814 298.42 44.2421 298.792 44.6103C299.162 44.9763 299.595 45.2632 300.089 45.4687C300.584 45.6742 301.119 45.7769 301.695 45.7769C302.069 45.7769 302.438 45.7234 302.801 45.6206C303.165 45.5157 303.512 45.3659 303.846 45.1711C304.18 44.9763 304.478 44.7473 304.739 44.4861L303.953 43.6663C303.653 43.9574 303.313 44.1886 302.932 44.3577C302.551 44.5268 302.161 44.6103 301.763 44.6103C301.365 44.6103 301.01 44.5354 300.667 44.3855C300.327 44.2357 300.027 44.0302 299.768 43.7669C299.509 43.5057 299.31 43.1996 299.167 42.8507C299.025 42.5018 298.953 42.1293 298.953 41.7333C298.953 41.3373 299.023 40.952 299.167 40.6052C299.308 40.2563 299.509 39.9523 299.768 39.689C300.027 39.4279 300.325 39.2224 300.667 39.0768C301.008 38.9312 301.374 38.8585 301.763 38.8585C302.153 38.8585 302.553 38.9484 302.943 39.1282C303.332 39.308 303.668 39.5542 303.953 39.8688L304.728 38.9591H304.726Z" fill="white"/>
<path d="M114.612 58.9887H114.754L117.303 54.4185H116.31L114.687 57.2826L113.033 54.4185H112.048L114.614 58.9887H114.612ZM114.208 60.2131H115.175V57.7706H114.208V60.2131Z" fill="white"/>
<path d="M122.524 54.5856C122.151 54.7354 121.826 54.9431 121.548 55.2106C121.269 55.4782 121.051 55.7907 120.893 56.1504C120.736 56.51 120.657 56.8953 120.657 57.3084C120.657 57.7216 120.736 58.1111 120.893 58.4708C121.049 58.8325 121.267 59.1472 121.548 59.4191C121.826 59.6888 122.151 59.9007 122.524 60.0527C122.896 60.2047 123.299 60.2796 123.729 60.2796C124.159 60.2796 124.562 60.2047 124.934 60.0527C125.307 59.9007 125.632 59.6888 125.91 59.4191C126.189 59.1493 126.407 58.8325 126.565 58.4708C126.722 58.109 126.801 57.7216 126.801 57.3084C126.801 56.8953 126.722 56.51 126.565 56.1546C126.409 55.7993 126.191 55.4846 125.91 55.2149C125.632 54.9452 125.307 54.7354 124.934 54.5856C124.562 54.4357 124.159 54.363 123.729 54.363C123.299 54.363 122.896 54.4379 122.524 54.5856ZM124.536 55.3519C124.786 55.4589 125.007 55.6109 125.193 55.8036C125.382 55.9962 125.529 56.221 125.636 56.4779C125.743 56.7347 125.797 57.0109 125.797 57.3106C125.797 57.6103 125.743 57.8864 125.636 58.1475C125.529 58.4066 125.382 58.6356 125.193 58.8304C125.005 59.0273 124.786 59.1793 124.536 59.2906C124.286 59.4019 124.018 59.4555 123.738 59.4555C123.457 59.4555 123.19 59.3998 122.939 59.2906C122.689 59.1793 122.466 59.0273 122.273 58.8304C122.081 58.6356 121.929 58.4066 121.817 58.1475C121.706 57.8885 121.653 57.6103 121.653 57.3106C121.653 57.0109 121.706 56.7347 121.813 56.4779C121.92 56.221 122.072 55.9962 122.265 55.8036C122.457 55.6109 122.68 55.4611 122.931 55.3519C123.181 55.2449 123.451 55.1914 123.738 55.1914C124.024 55.1914 124.286 55.2449 124.536 55.3519ZM132.015 54.4207H131.039V57.8393C131.039 58.3423 131.14 58.7769 131.341 59.1429C131.542 59.5111 131.831 59.7915 132.206 59.9863C132.58 60.1833 133.028 60.2796 133.548 60.2796C134.068 60.2796 134.505 60.1811 134.877 59.9863C135.25 59.7915 135.534 59.509 135.734 59.1429C135.933 58.7769 136.031 58.3423 136.031 57.8393V54.4207H135.055V57.8393C135.055 58.3466 134.92 58.7426 134.65 59.0273C134.381 59.312 134.012 59.4533 133.55 59.4533C133.088 59.4533 132.709 59.3099 132.433 59.0231C132.157 58.7362 132.02 58.3423 132.02 57.8393V54.4207H132.015ZM140.749 54.4207V60.2154H141.725V58.4515H143.099C143.844 58.4515 144.42 58.2717 144.825 57.9099C145.231 57.5482 145.433 57.043 145.433 56.3901C145.433 55.7372 145.229 55.2813 144.825 54.9366C144.42 54.592 143.844 54.4186 143.099 54.4186H140.749V54.4207ZM141.725 57.6167V55.2577H143.099C143.547 55.2577 143.894 55.3519 144.138 55.5424C144.382 55.7329 144.506 56.0241 144.506 56.4158C144.506 56.8075 144.384 57.1265 144.138 57.3213C143.891 57.5182 143.547 57.6145 143.099 57.6145H141.725V57.6167ZM144.424 60.2154H145.533L144.093 58.0705H143.131L144.422 60.2154H144.424ZM159.524 54.9409C159.254 54.7654 158.942 54.622 158.589 54.5106C158.236 54.3993 157.872 54.3458 157.495 54.3458C157.075 54.3458 156.707 54.4122 156.39 54.5449C156.074 54.6776 155.825 54.8639 155.65 55.1036C155.472 55.3433 155.384 55.6259 155.384 55.9513C155.384 56.2488 155.44 56.495 155.553 56.6876C155.667 56.8803 155.815 57.0387 156.001 57.1586C156.185 57.2806 156.39 57.3812 156.613 57.4604C156.836 57.5396 157.06 57.6103 157.283 57.6723C157.506 57.7323 157.711 57.8029 157.895 57.88C158.079 57.957 158.229 58.0555 158.343 58.1732C158.456 58.291 158.512 58.4472 158.512 58.642C158.512 58.8796 158.415 59.0637 158.227 59.1964C158.039 59.3292 157.771 59.3955 157.429 59.3955C157.225 59.3955 157.007 59.3634 156.778 59.297C156.549 59.2307 156.322 59.1344 156.099 59.0081C155.877 58.8818 155.665 58.7255 155.466 58.5436L155.044 59.3463C155.243 59.5282 155.468 59.6888 155.718 59.8258C155.969 59.9628 156.238 60.0719 156.525 60.1533C156.812 60.2325 157.107 60.2732 157.411 60.2732C157.835 60.2732 158.212 60.2047 158.542 60.0655C158.869 59.9285 159.128 59.7337 159.317 59.4811C159.505 59.2307 159.597 58.9331 159.597 58.5906C159.597 58.2931 159.541 58.0448 159.432 57.85C159.321 57.6552 159.173 57.4925 158.985 57.3662C158.796 57.2399 158.593 57.135 158.373 57.0558C158.152 56.9766 157.929 56.9017 157.707 56.8375C157.484 56.7711 157.279 56.7005 157.095 56.6256C156.911 56.5506 156.761 56.4543 156.647 56.3366C156.534 56.2189 156.478 56.0647 156.478 55.8764C156.478 55.6666 156.564 55.506 156.735 55.3969C156.906 55.2856 157.135 55.232 157.422 55.232C157.572 55.232 157.737 55.2492 157.919 55.2813C158.101 55.3134 158.293 55.369 158.499 55.4461C158.702 55.5232 158.91 55.628 159.12 55.7608L159.524 54.9409ZM163.364 55.2556H165.195V60.2154H166.171V55.2556H168.01V54.4186H163.364V55.2556ZM172.156 54.4186V60.2132H173.132V58.4494H174.506C175.251 58.4494 175.827 58.2696 176.232 57.9078C176.636 57.546 176.84 57.0409 176.84 56.388C176.84 55.7351 176.636 55.2791 176.232 54.9345C175.825 54.5899 175.251 54.4165 174.506 54.4165H172.156V54.4186ZM173.132 57.6145V55.2556H174.506C174.954 55.2556 175.3 55.3498 175.545 55.5403C175.791 55.7308 175.913 56.0219 175.913 56.4137C175.913 56.8054 175.791 57.1243 175.545 57.3191C175.298 57.5161 174.952 57.6124 174.506 57.6124H173.132V57.6145ZM175.831 60.2132H176.94L175.5 58.0683H174.538L175.829 60.2132H175.831ZM180.699 60.2132H181.718L183.73 55.4033L185.751 60.2132H186.793L184.261 54.4186H183.259L180.701 60.2132H180.699ZM181.975 58.8732H185.443V58.0448H181.975V58.8732Z" fill="white"/>
<path d="M189.619 55.2555H191.449V60.2153H192.425V55.2555H194.264V54.4186H189.619V55.2555ZM198.411 60.2153H202.649V59.3784H199.387V57.7151H202.219V56.8867H199.387V55.2555H202.548V54.4186H198.408V60.2132L198.411 60.2153ZM212.003 55.1828C211.815 55.0115 211.601 54.866 211.357 54.7439C211.113 54.6219 210.858 54.5277 210.591 54.4614C210.323 54.395 210.051 54.3629 209.775 54.3629C209.338 54.3629 208.932 54.4378 208.555 54.5855C208.176 54.7354 207.846 54.9452 207.566 55.2149C207.286 55.4846 207.065 55.7993 206.909 56.1546C206.753 56.5099 206.673 56.8953 206.673 57.3084C206.673 57.7215 206.75 58.1111 206.905 58.4707C207.059 58.8325 207.275 59.1472 207.555 59.419C207.834 59.6887 208.157 59.9007 208.523 60.0526C208.889 60.2046 209.289 60.2796 209.719 60.2796C209.985 60.2796 210.252 60.2474 210.522 60.1854C210.792 60.1211 211.053 60.0312 211.303 59.9156C211.554 59.8001 211.777 59.6673 211.969 59.5175L211.406 58.8389C211.175 59.0273 210.914 59.175 210.625 59.2863C210.336 59.3976 210.056 59.4511 209.784 59.4511C209.486 59.4511 209.208 59.3955 208.951 59.2863C208.694 59.175 208.469 59.023 208.277 58.8261C208.084 58.6313 207.934 58.4022 207.825 58.1432C207.718 57.8842 207.664 57.6059 207.664 57.3062C207.664 57.0066 207.718 56.7304 207.825 56.4736C207.932 56.2167 208.082 55.9919 208.277 55.7993C208.469 55.6066 208.694 55.4546 208.947 55.3433C209.201 55.232 209.478 55.1785 209.775 55.1785C210.073 55.1785 210.379 55.2384 210.674 55.3562C210.97 55.4739 211.226 55.6387 211.449 55.8485L212.003 55.1785V55.1828ZM211.117 59.5218H211.969V57.3854H211.117V59.5218ZM216.664 60.2175H217.64V54.4229H216.664V60.2175ZM227.242 55.2577C227.054 55.0693 226.842 54.9109 226.605 54.7782C226.367 54.6455 226.116 54.5427 225.851 54.4721C225.586 54.4014 225.316 54.3651 225.04 54.3651C224.609 54.3651 224.211 54.44 223.843 54.5877C223.477 54.7375 223.154 54.9473 222.876 55.217C222.597 55.4867 222.381 55.8014 222.225 56.1567C222.071 56.5121 221.994 56.8974 221.994 57.3105C221.994 57.7237 222.071 58.1133 222.225 58.4729C222.379 58.8346 222.593 59.1493 222.867 59.4212C223.141 59.6909 223.46 59.9028 223.824 60.0548C224.188 60.2068 224.582 60.2817 225.008 60.2817C225.284 60.2817 225.556 60.2432 225.823 60.1661C226.091 60.089 226.348 59.9777 226.594 59.8343C226.84 59.6909 227.058 59.5218 227.251 59.3291L226.671 58.7255C226.45 58.9417 226.2 59.1108 225.917 59.2349C225.635 59.3591 225.348 59.4212 225.057 59.4212C224.766 59.4212 224.5 59.3655 224.25 59.2563C223.999 59.145 223.779 58.9952 223.588 58.8004C223.398 58.6077 223.25 58.383 223.145 58.1261C223.04 57.8692 222.989 57.5952 222.989 57.302C222.989 57.0087 223.04 56.7261 223.145 56.4693C223.25 56.2124 223.398 55.9876 223.588 55.795C223.779 55.6023 223.999 55.4525 224.25 55.3433C224.5 55.2363 224.77 55.1828 225.057 55.1828C225.344 55.1828 225.639 55.2491 225.926 55.3818C226.213 55.5146 226.461 55.6965 226.671 55.9277L227.242 55.2577ZM237.102 54.4207V60.2153H238.078V58.0212L237.648 58.4515H239.412C240.14 58.4515 240.705 58.2717 241.105 57.9099C241.505 57.5481 241.704 57.043 241.704 56.3901C241.704 55.7372 241.505 55.2812 241.105 54.9366C240.705 54.592 240.14 54.4186 239.412 54.4186H237.102V54.4207ZM237.648 57.6166L238.078 58.0469V54.8274L237.648 55.2577H239.369C239.816 55.2577 240.161 55.3519 240.403 55.5424C240.645 55.7329 240.767 56.024 240.767 56.4158C240.767 56.8075 240.645 57.1264 240.403 57.3212C240.161 57.5182 239.814 57.6145 239.369 57.6145H237.648V57.6166Z" fill="white"/>
<path d="M244.87 60.2154H245.889L247.901 55.4054L249.922 60.2154H250.964L248.432 54.4207H247.43L244.872 60.2154H244.87ZM246.146 58.8753H249.614V58.0469H246.146V58.8753ZM255.044 54.4207V60.2154H256.021V58.4515H257.395C258.14 58.4515 258.716 58.2717 259.12 57.9099C259.525 57.5482 259.728 57.043 259.728 56.3901C259.728 55.7372 259.525 55.2813 259.12 54.9366C258.713 54.592 258.14 54.4186 257.395 54.4186H255.044V54.4207ZM256.021 57.6167V55.2577H257.395C257.842 55.2577 258.189 55.3519 258.433 55.5424C258.677 55.7329 258.801 56.0241 258.801 56.4158C258.801 56.8075 258.679 57.1265 258.433 57.3213C258.187 57.5182 257.842 57.6145 257.395 57.6145H256.021V57.6167ZM258.72 60.2154H259.829L258.388 58.0705H257.427L258.718 60.2154H258.72ZM263.654 55.2556H265.484V60.2154H266.46V55.2556H268.299V54.4186H263.654V55.2556ZM272.445 60.2154H273.422V55.5467L273.165 55.6302L276.508 60.2175H277.469V54.4229H276.508V59.1001L276.757 59.0166L273.404 54.4229H272.443V60.2175L272.445 60.2154ZM282.314 60.2154H286.552V59.3784H283.29V57.7151H286.122V56.8867H283.29V55.2556H286.451V54.4186H282.311V60.2132L282.314 60.2154ZM291.056 54.4207V60.2154H292.032V58.4515H293.406C294.151 58.4515 294.727 58.2717 295.132 57.9099C295.538 57.5482 295.739 57.043 295.739 56.3901C295.739 55.7372 295.536 55.2813 295.132 54.9366C294.727 54.592 294.151 54.4186 293.406 54.4186H291.056V54.4207ZM292.032 57.6167V55.2577H293.406C293.854 55.2577 294.2 55.3519 294.444 55.5424C294.688 55.7329 294.813 56.0241 294.813 56.4158C294.813 56.8075 294.691 57.1265 294.444 57.3213C294.198 57.5182 293.854 57.6145 293.406 57.6145H292.032V57.6167ZM294.731 60.2154H295.84L294.399 58.0705H293.438L294.729 60.2154H294.731ZM304.285 54.9409C304.015 54.7654 303.703 54.622 303.349 54.5106C302.996 54.3993 302.632 54.3458 302.255 54.3458C301.836 54.3458 301.468 54.4122 301.151 54.5449C300.834 54.6776 300.586 54.8639 300.41 55.1036C300.233 55.3433 300.145 55.6259 300.145 55.9513C300.145 56.2488 300.2 56.495 300.314 56.6876C300.427 56.8803 300.575 57.0387 300.761 57.1586C300.945 57.2806 301.151 57.3812 301.374 57.4604C301.596 57.5396 301.821 57.6103 302.044 57.6723C302.266 57.7323 302.472 57.8029 302.656 57.88C302.84 57.957 302.99 58.0555 303.103 58.1732C303.217 58.291 303.272 58.4472 303.272 58.642C303.272 58.8796 303.178 59.0637 302.988 59.1964C302.797 59.3292 302.532 59.3955 302.189 59.3955C301.986 59.3955 301.767 59.3634 301.538 59.297C301.309 59.2307 301.082 59.1344 300.86 59.0081C300.637 58.8818 300.425 58.7255 300.226 58.5436L299.804 59.3463C300.004 59.5282 300.228 59.6888 300.479 59.8258C300.729 59.9628 300.999 60.0719 301.286 60.1533C301.573 60.2325 301.868 60.2732 302.172 60.2732C302.598 60.2732 302.973 60.2047 303.302 60.0655C303.63 59.9285 303.889 59.7337 304.077 59.4811C304.266 59.2307 304.36 58.9331 304.36 58.5906C304.36 58.2931 304.304 58.0448 304.195 57.85C304.084 57.6552 303.936 57.4925 303.747 57.3662C303.559 57.2399 303.356 57.135 303.135 57.0558C302.915 56.9766 302.692 56.9017 302.47 56.8375C302.247 56.7711 302.041 56.7005 301.857 56.6256C301.673 56.5506 301.523 56.4543 301.41 56.3366C301.296 56.2189 301.241 56.0647 301.241 55.8764C301.241 55.6666 301.326 55.506 301.498 55.3969C301.669 55.2856 301.898 55.232 302.185 55.232C302.335 55.232 302.5 55.2492 302.681 55.2813C302.863 55.3134 303.056 55.369 303.262 55.4461C303.465 55.5232 303.673 55.628 303.882 55.7608L304.289 54.9409H304.285Z" fill="white"/>
</g>
<defs>
<clipPath id="clip0_378_377">
<rect width="305" height="80.2406" fill="white" transform="translate(0.0537109)"/>
</clipPath>
</defs>
</svg>
